<?xml version="1.0" encoding="utf-8"?>
<svg xmlns="http://www.w3.org/2000/svg" version="1.1" width="1000" height="800">

<line x1="100" y1="100" x2="200" y2="100" stroke="rgb(0,0,0)" />
<text x="150" y="95" fill="rgb(0,0,0)" >7.0</text>
<text x="130" y="120" fill="rgb(0,0,0)" >18</text>
<text x="170" y="120" fill="rgb(0,0,0)" >4</text>
<line x1="200" y1="100" x2="300" y2="100" stroke="rgb(0,0,0)" />
<text x="250" y="95" fill="rgb(0,0,0)" >3.0</text>
<text x="230" y="120" fill="rgb(0,0,0)" >19</text>
<text x="270" y="120" fill="rgb(0,0,0)" >1</text>
<line x1="300" y1="100" x2="400" y2="100" stroke="rgb(0,0,0)" />
<text x="350" y="95" fill="rgb(0,0,0)" >4.0</text>
<text x="330" y="120" fill="rgb(0,0,0)" >20</text>
<text x="370" y="120" fill="rgb(0,0,0)" >1</text>
<line x1="100" y1="200" x2="200" y2="200" stroke="rgb(0,0,0)" />
<text x="150" y="195" fill="rgb(0,0,0)" >7.0</text>
<text x="130" y="220" fill="rgb(0,0,0)" >21</text>
<text x="170" y="220" fill="rgb(0,0,0)" >7</text>
<line x1="200" y1="200" x2="300" y2="200" stroke="rgb(0,0,0)" />
<text x="250" y="195" fill="rgb(0,0,0)" >3.0</text>
<text x="230" y="220" fill="rgb(0,0,0)" >22</text>
<text x="270" y="220" fill="rgb(0,0,0)" >6</text>
<line x1="300" y1="200" x2="400" y2="200" stroke="rgb(0,0,0)" />
<text x="350" y="195" fill="rgb(0,0,0)" >4.0</text>
<text x="330" y="220" fill="rgb(0,0,0)" >23</text>
<text x="370" y="220" fill="rgb(0,0,0)" >1</text>
<line x1="100" y1="300" x2="200" y2="300" stroke="rgb(0,0,0)" />
<text x="150" y="295" fill="rgb(0,0,0)" >8.0</text>
<text x="130" y="320" fill="rgb(0,0,0)" >23</text>
<text x="170" y="320" fill="rgb(0,0,0)" >1</text>
<line x1="200" y1="300" x2="300" y2="300" stroke="rgb(0,0,0)" />
<text x="250" y="295" fill="rgb(0,0,0)" >7</text>
<text x="230" y="320" fill="rgb(0,0,0)" >23</text>
<text x="270" y="320" fill="rgb(0,0,0)" >1</text>
<line x1="300" y1="300" x2="400" y2="300" stroke="rgb(0,0,0)" />
<text x="350" y="295" fill="rgb(0,0,0)" >8</text>
<text x="330" y="320" fill="rgb(0,0,0)" >23</text>
<text x="370" y="320" fill="rgb(0,0,0)" >1</text>
<line x1="100" y1="400" x2="200" y2="400" stroke="rgb(0,0,0)" />
<text x="150" y="395" fill="rgb(0,0,0)" >9</text>
<text x="130" y="420" fill="rgb(0,0,0)" >23</text>
<text x="170" y="420" fill="rgb(0,0,0)" >1</text>
<line x1="200" y1="400" x2="300" y2="400" stroke="rgb(0,0,0)" />
<text x="250" y="395" fill="rgb(0,0,0)" >10</text>
<text x="230" y="420" fill="rgb(0,0,0)" >23</text>
<text x="270" y="420" fill="rgb(0,0,0)" >1</text>
<line x1="300" y1="400" x2="400" y2="400" stroke="rgb(0,0,0)" />
<text x="350" y="395" fill="rgb(0,0,0)" >11</text>
<text x="330" y="420" fill="rgb(0,0,0)" >23</text>
<text x="370" y="420" fill="rgb(0,0,0)" >1</text>
<line x1="100" y1="100" x2="100" y2="200" stroke="rgb(0,0,0)" />
<text x="100" y="145" fill="rgb(0,0,0)" >12</text>
<text x="80" y="170" fill="rgb(0,0,0)" >23</text>
<text x="120" y="170" fill="rgb(0,0,0)" >1</text>
<line x1="200" y1="100" x2="200" y2="200" stroke="rgb(0,0,0)" />
<text x="200" y="145" fill="rgb(0,0,0)" >13</text>
<text x="180" y="170" fill="rgb(0,0,0)" >23</text>
<text x="220" y="170" fill="rgb(0,0,0)" >1</text>
<line x1="300" y1="100" x2="300" y2="200" stroke="rgb(0,0,0)" />
<text x="300" y="145" fill="rgb(0,0,0)" >14</text>
<text x="280" y="170" fill="rgb(0,0,0)" >23</text>
<text x="320" y="170" fill="rgb(0,0,0)" >1</text>
<line x1="400" y1="100" x2="400" y2="200" stroke="rgb(0,0,0)" />
<text x="400" y="145" fill="rgb(0,0,0)" >15</text>
<text x="380" y="170" fill="rgb(0,0,0)" >23</text>
<text x="420" y="170" fill="rgb(0,0,0)" >1</text>
<line x1="100" y1="200" x2="100" y2="300" stroke="rgb(0,0,0)" />
<text x="100" y="245" fill="rgb(0,0,0)" >16</text>
<text x="80" y="270" fill="rgb(0,0,0)" >23</text>
<text x="120" y="270" fill="rgb(0,0,0)" >1</text>
<line x1="200" y1="200" x2="200" y2="300" stroke="rgb(0,0,0)" />
<text x="200" y="245" fill="rgb(0,0,0)" >17</text>
<text x="180" y="270" fill="rgb(0,0,0)" >23</text>
<text x="220" y="270" fill="rgb(0,0,0)" >1</text>
<line x1="300" y1="200" x2="300" y2="300" stroke="rgb(0,0,0)" />
<text x="300" y="245" fill="rgb(0,0,0)" >18</text>
<text x="280" y="270" fill="rgb(0,0,0)" >23</text>
<text x="320" y="270" fill="rgb(0,0,0)" >1</text>
<line x1="400" y1="200" x2="400" y2="300" stroke="rgb(0,0,0)" />
<text x="400" y="245" fill="rgb(0,0,0)" >19</text>
<text x="380" y="270" fill="rgb(0,0,0)" >23</text>
<text x="420" y="270" fill="rgb(0,0,0)" >1</text>
<line x1="100" y1="300" x2="100" y2="400" stroke="rgb(0,0,0)" />
<text x="100" y="345" fill="rgb(0,0,0)" >20</text>
<text x="80" y="370" fill="rgb(0,0,0)" >23</text>
<text x="120" y="370" fill="rgb(0,0,0)" >1</text>
<line x1="200" y1="300" x2="200" y2="400" stroke="rgb(0,0,0)" />
<text x="200" y="345" fill="rgb(0,0,0)" >21</text>
<text x="180" y="370" fill="rgb(0,0,0)" >23</text>
<text x="220" y="370" fill="rgb(0,0,0)" >1</text>
<line x1="300" y1="300" x2="300" y2="400" stroke="rgb(0,0,0)" />
<text x="300" y="345" fill="rgb(0,0,0)" >22</text>
<text x="280" y="370" fill="rgb(0,0,0)" >23</text>
<text x="320" y="370" fill="rgb(0,0,0)" >1</text>
<line x1="400" y1="300" x2="400" y2="400" stroke="rgb(0,0,0)" />
<text x="400" y="345" fill="rgb(0,0,0)" >23</text>
<text x="380" y="370" fill="rgb(0,0,0)" >23</text>
<text x="420" y="370" fill="rgb(0,0,0)" >1</text>
<circle cx="100" cy="100" r="20" fill="none" stroke="rgb(0,0,0)" stroke-width="1" />
<text x="95.5" y="105" fill="rgb(0,0,0)" >0</text>
<circle cx="200" cy="100" r="20" fill="none" stroke="rgb(0,0,0)" stroke-width="1" />
<text x="195.5" y="105" fill="rgb(0,0,0)" >1</text>
<circle cx="300" cy="100" r="20" fill="none" stroke="rgb(0,0,0)" stroke-width="1" />
<text x="295.5" y="105" fill="rgb(0,0,0)" >2</text>
<circle cx="400" cy="100" r="20" fill="none" stroke="rgb(0,0,0)" stroke-width="1" />
<text x="395.5" y="105" fill="rgb(0,0,0)" >3</text>
<circle cx="100" cy="200" r="20" fill="none" stroke="rgb(0,0,0)" stroke-width="1" />
<text x="95.5" y="205" fill="rgb(0,0,0)" >4</text>
<circle cx="200" cy="200" r="20" fill="none" stroke="rgb(0,0,0)" stroke-width="1" />
<text x="195.5" y="205" fill="rgb(0,0,0)" >5</text>
<circle cx="300" cy="200" r="20" fill="none" stroke="rgb(0,0,0)" stroke-width="1" />
<text x="295.5" y="205" fill="rgb(0,0,0)" >6</text>
<circle cx="400" cy="200" r="20" fill="none" stroke="rgb(0,0,0)" stroke-width="1" />
<text x="395.5" y="205" fill="rgb(0,0,0)" >7</text>
<circle cx="100" cy="300" r="20" fill="none" stroke="rgb(0,0,0)" stroke-width="1" />
<text x="95.5" y="305" fill="rgb(0,0,0)" >8</text>
<circle cx="200" cy="300" r="20" fill="none" stroke="rgb(0,0,0)" stroke-width="1" />
<text x="195.5" y="305" fill="rgb(0,0,0)" >9</text>
<circle cx="300" cy="300" r="20" fill="none" stroke="rgb(0,0,0)" stroke-width="1" />
<text x="295.5" y="305" fill="rgb(0,0,0)" >10</text>
<circle cx="400" cy="300" r="20" fill="none" stroke="rgb(0,0,0)" stroke-width="1" />
<text x="395.5" y="305" fill="rgb(0,0,0)" >11</text>
<circle cx="100" cy="400" r="20" fill="none" stroke="rgb(0,0,0)" stroke-width="1" />
<text x="95.5" y="405" fill="rgb(0,0,0)" >12</text>
<circle cx="200" cy="400" r="20" fill="none" stroke="rgb(0,0,0)" stroke-width="1" />
<text x="195.5" y="405" fill="rgb(0,0,0)" >13</text>
<circle cx="300" cy="400" r="20" fill="none" stroke="rgb(0,0,0)" stroke-width="1" />
<text x="295.5" y="405" fill="rgb(0,0,0)" >14</text>
<circle cx="400" cy="400" r="20" fill="none" stroke="rgb(0,0,0)" stroke-width="1" />
<text x="395.5" y="405" fill="rgb(0,0,0)" >15</text>


</svg>
